<svg xmlns="http://www.w3.org/2000/svg" fill="none" viewBox="0 0 174 174"><path d="m29.4 63.4c-7 5.5-11.4 14-11.4 23.6 0 16.6 13.4 30 30 30h26c16.6 0 30-13.4 30-30v-7c0-1.1.9-2 2-2h14c1.1 0 2 .9 2 2v7c0 26.5-21.5 48-48 48h-26c-26.5 0-48-21.5-48-48s6.5-27.5 16.7-36.3l-9.9-9.9c-.4-.4-.4-1 0-1.4.2-.2.4-.3.7-.3h32.6c.6 0 1 .4 1 1v32.6c0 .6-.5 1-1 1-.3 0-.5-.1-.7-.3l-9.9-9.9z"/><path d="m144.6 110.6c7-5.5 11.4-14 11.4-23.6 0-16.6-13.4-30-30-30h-26c-16.6 0-30 13.4-30 30v7c0 1.1-.9 2-2 2h-14c-1.1 0-2-.9-2-2v-7c0-26.5 21.5-48 48-48h26c26.5 0 48 21.5 48 48s-6.5 27.5-16.7 36.3l9.9 9.9c.4.4.4 1 0 1.4-.2.2-.4.3-.7.3h-32.6c-.6 0-1-.4-1-1v-32.6c0-.6.5-1 1-1 .3 0 .5.1.7.3l9.9 9.9z"/><style>path{fill:#000}@media (prefers-color-scheme:dark){path{fill:#fff}}</style></svg>